<svg xmlns="http://www.w3.org/2000/svg" width="30" height="30" viewBox="0 0 30 28" fill="none">
  <g clip-path="url(#clip0_342_169)">
    <path d="M23.7381 0H6.35795C4.7123 0.0018525 3.13463 0.617029 1.97098 1.71059C0.807331 2.80415 0.152728 4.28681 0.150757 5.83333L0.150757 22.1667C0.152728 23.7132 0.807331 25.1959 1.97098 26.2894C3.13463 27.383 4.7123 27.9981 6.35795 28H23.7381C25.3837 27.9981 26.9614 27.383 28.1251 26.2894C29.2887 25.1959 29.9433 23.7132 29.9453 22.1667V5.83333C29.9433 4.28681 29.2887 2.80415 28.1251 1.71059C26.9614 0.617029 25.3837 0.0018525 23.7381 0ZM6.35795 2.33333H23.7381C24.7258 2.33333 25.6731 2.70208 26.3716 3.35846C27.07 4.01484 27.4624 4.90508 27.4624 5.83333V22.1667C27.4603 22.6864 27.3329 23.1989 27.09 23.6658L15.7147 12.9757C15.1383 12.4338 14.4539 12.004 13.7007 11.7108C12.9475 11.4175 12.1402 11.2666 11.3249 11.2666C10.5097 11.2666 9.70237 11.4175 8.94918 11.7108C8.19598 12.004 7.51163 12.4338 6.93522 12.9757L2.63363 17.017V5.83333C2.63363 4.90508 3.02602 4.01484 3.72446 3.35846C4.4229 2.70208 5.3702 2.33333 6.35795 2.33333ZM6.35795 25.6667C5.3702 25.6667 4.4229 25.2979 3.72446 24.6415C3.02602 23.9852 2.63363 23.0949 2.63363 22.1667V20.3163L8.68937 14.6253C9.03524 14.3001 9.44591 14.0421 9.89792 13.866C10.3499 13.69 10.8344 13.5994 11.3237 13.5994C11.813 13.5994 12.2975 13.69 12.7495 13.866C13.2015 14.0421 13.6122 14.3001 13.958 14.6253L25.3333 25.3167C24.8365 25.545 24.2911 25.6647 23.7381 25.6667H6.35795Z" fill="#524F4F"/>
    <path d="M20.0137 12.25C20.8731 12.25 21.7132 12.0105 22.4277 11.5618C23.1422 11.1131 23.6992 10.4754 24.028 9.72929C24.3569 8.98316 24.4429 8.16213 24.2753 7.37005C24.1076 6.57796 23.6938 5.85038 23.0861 5.27931C22.4785 4.70825 21.7043 4.31935 20.8614 4.16179C20.0186 4.00423 19.1449 4.0851 18.351 4.39416C17.557 4.70321 16.8784 5.22658 16.401 5.89809C15.9235 6.56959 15.6687 7.35906 15.6687 8.16666C15.6687 9.24963 16.1265 10.2882 16.9413 11.054C17.7562 11.8198 18.8614 12.25 20.0137 12.25ZM20.0137 6.41666C20.382 6.41666 20.7421 6.5193 21.0483 6.71159C21.3545 6.90388 21.5932 7.1772 21.7341 7.49697C21.8751 7.81674 21.912 8.16861 21.8401 8.50807C21.7683 8.84754 21.5909 9.15936 21.3305 9.4041C21.0701 9.64884 20.7382 9.81551 20.377 9.88304C20.0158 9.95056 19.6414 9.91591 19.3011 9.78345C18.9609 9.651 18.67 9.4267 18.4654 9.13891C18.2608 8.85113 18.1516 8.51278 18.1516 8.16666C18.1516 7.70254 18.3478 7.25742 18.697 6.92923C19.0462 6.60104 19.5199 6.41666 20.0137 6.41666Z" fill="#524F4F"/>
  </g>
  <defs>
    <clipPath id="clip0_342_169">
      <rect width="29.7945" height="28" fill="white" transform="translate(0.150757)"/>
    </clipPath>
  </defs>
</svg>